<?xml version="1.0" encoding="utf-8"?>
<!-- Generator: Adobe Illustrator 16.0.0, SVG Export Plug-In . SVG Version: 6.00 Build 0)  -->
<!DOCTYPE svg PUBLIC "-//W3C//DTD SVG 1.1//EN" "http://www.w3.org/Graphics/SVG/1.1/DTD/svg11.dtd">
<svg version="1.1" id="Layer_1" xmlns="http://www.w3.org/2000/svg" xmlns:xlink="http://www.w3.org/1999/xlink" x="0px" y="0px"
	 width="411.501px" height="74.339px" viewBox="44.244 212.752 411.501 74.339"
	 enable-background="new 44.244 212.752 411.501 74.339" xml:space="preserve">
<g>
	<path d="M70.139,230.983c4.618,0,8.9,1.7,12.1,4.429l4.472-5.33c-4.496-3.779-10.29-6.061-16.61-6.061
		c-14.258,0-25.857,11.6-25.857,25.857c0,14.3,11.6,25.899,25.9,25.856c6.32,0,12.114-2.282,16.61-6.062l-4.472-5.33
		c-3.286,2.761-7.521,4.429-12.139,4.429c-10.419,0-18.896-8.476-18.896-18.894C51.243,239.5,59.7,231,70.1,230.983H70.139z"/>
	<path d="M213.274,225.514h-13.923c-1.922,0-3.48,1.559-3.48,3.48v41.77c0,1.899,1.6,3.5,3.5,3.479h13.923
		c13.436,0,24.365-10.931,24.365-24.365C237.64,236.4,226.7,225.5,213.3,225.514H213.274z M213.274,267.283h-10.442v-34.808h10.442
		c9.597,0,17.4,7.8,17.4,17.404c0.005,9.621-7.774,17.421-17.374,17.404H213.274z"/>
	<path d="M256.486,228.995v41.769c0,1.9,1.601,3.5,3.5,3.48h29.008v-6.961h-25.525v-13.924h16.243v-6.961h-16.243v-13.923h25.525
		v-6.961h-29.008c-1.94-0.014-3.486,1.586-3.486,3.481H256.486z"/>
	<path d="M361.851,228.995v41.769c0,1.9,1.601,3.5,3.5,3.48h29.007v-6.961h-25.525v-13.924h16.244v-6.961h-16.244v-13.923h25.525
		v-6.961h-29.007c-1.941-0.014-3.45,1.586-3.45,3.481H361.851z"/>
	<path d="M328.725,225.514h-15.084c-1.922,0-3.479,1.559-3.479,3.48v45.25h6.962v-20.885h11.603c7.678,0,13.924-6.246,13.924-13.922
		c-0.002-7.637-6.249-13.937-13.949-13.923H328.725z M328.725,246.398h-11.603v-13.923h11.603c3.84,0,7,3.1,7,7
		s-3.162,6.925-7.024,6.923H328.725z"/>
	<path d="M448.757,225.514v35.636l-28.651-34.384c-0.938-1.127-2.481-1.545-3.859-1.045s-2.296,1.808-2.296,3.273v45.25h6.962
		v-35.635l28.652,34.383c0.675,0.8,1.699,1.3,2.699,1.252c0.396,0,0.797-0.066,1.186-0.207c1.378-0.5,2.296-1.809,2.296-3.273
		v-45.25H448.757z"/>
	<path d="M176.097,238.012c-0.017-0.09-0.032-0.18-0.056-0.268c-0.015-0.053-0.033-0.103-0.05-0.155
		c-0.025-0.078-0.051-0.156-0.082-0.232c-0.022-0.053-0.047-0.104-0.071-0.155c-0.034-0.072-0.069-0.143-0.109-0.212
		c-0.028-0.051-0.06-0.099-0.091-0.148c-0.043-0.066-0.087-0.131-0.135-0.194c-0.035-0.047-0.071-0.092-0.109-0.137
		c-0.05-0.06-0.104-0.117-0.158-0.173c-0.042-0.042-0.084-0.084-0.128-0.125c-0.058-0.053-0.118-0.103-0.181-0.151
		c-0.048-0.037-0.095-0.075-0.145-0.109c-0.018-0.013-0.034-0.028-0.053-0.04l-33.938-22.625c-1.071-0.715-2.468-0.715-3.539,0
		l-33.938,22.625c-0.019,0.012-0.034,0.027-0.053,0.04c-0.05,0.035-0.097,0.072-0.145,0.109c-0.062,0.049-0.123,0.099-0.181,0.2
		c-0.044,0.04-0.086,0.082-0.127,0.125c-0.056,0.056-0.108,0.113-0.159,0.173c-0.038,0.045-0.074,0.09-0.109,0.1
		c-0.048,0.063-0.092,0.127-0.135,0.194c-0.031,0.049-0.062,0.097-0.091,0.148c-0.04,0.069-0.075,0.14-0.108,0.2
		c-0.024,0.051-0.05,0.103-0.071,0.155c-0.031,0.076-0.058,0.154-0.083,0.232c-0.017,0.052-0.035,0.103-0.049,0.2
		c-0.023,0.088-0.04,0.177-0.056,0.268c-0.009,0.046-0.02,0.091-0.026,0.138c-0.018,0.138-0.028,0.276-0.028,0.417v22.625
		c0,0.101,0,0.301,0,0.418c0.007,0,0,0.1,0,0.138c0.016,0.101,0,0.2,0.1,0.3c0.014,0.1,0,0.1,0,0.155c0.025,0.101,0.1,0.2,0.1,0.233
		c0.021,0.1,0,0.1,0.1,0.199c0.033,0.101,0.1,0.101,0.1,0.213c0.028,0.101,0.1,0.101,0.1,0.146c0.043,0.1,0.1,0.1,0.1,0.2
		c0.035,0,0.1,0.1,0.1,0.138c0.051,0.1,0.1,0.1,0.2,0.173c0.041,0,0.1,0.101,0.1,0.101c0.058,0.1,0.1,0.1,0.2,0.151
		c0.048,0,0.1,0.101,0.1,0.109c0.019,0,0,0,0.1,0.039l33.938,22.6c0.536,0.4,1.2,0.5,1.8,0.537c0.6,0.037,1.234-0.18,1.77-0.537
		l33.938-22.625c0.019-0.012,0.035-0.026,0.053-0.038c0.05-0.035,0.097-0.072,0.145-0.109c0.062-0.049,0.123-0.101,0.181-0.152
		c0.044-0.039,0.086-0.082,0.128-0.124c0.055-0.056,0.108-0.112,0.158-0.173c0.038-0.045,0.074-0.09,0.109-0.139
		c0.048-0.062,0.092-0.127,0.135-0.193c0.031-0.048,0.062-0.098,0.091-0.146c0.04-0.069,0.075-0.141,0.109-0.213
		c0.024-0.051,0.049-0.102,0.071-0.154c0.031-0.076,0.057-0.154,0.082-0.232c0.017-0.052,0.035-0.104,0.05-0.154
		c0.023-0.089,0.039-0.179,0.056-0.269c0.008-0.046,0.02-0.091,0.025-0.138c0.018-0.139,0.028-0.276,0.028-0.418v-22.625
		c0-0.141-0.011-0.279-0.028-0.417c-0.016-0.13-0.032-0.13-0.032-0.218H176.097z M139.022,257.428l-11.285-7.548l11.285-7.549
		l11.286,7.549L139.022,257.428z M135.832,236.788l-13.834,9.252l-11.167-7.469l25.001-16.667V236.788z M116.259,249.879
		l-7.982,5.339V244.54L116.259,249.879z M121.998,253.719l13.834,9.252v14.885l-25.001-16.668L121.998,253.719z M142.213,262.971
		l13.834-9.252l11.168,7.5l-25.002,16.667V262.971z M161.786,249.879l7.983-5.34v10.679L161.786,249.879z M156.047,246.041
		l-13.834-9.252v-14.884l25.002,16.667L156.047,246.041z"/>
</g>
</svg>
